<svg xmlns="http://www.w3.org/2000/svg" width="206" height="58" viewBox="0 0 206 58">
  <rect width="206" height="58" rx="4" fill="#FFFFFF"/>
  <g transform="translate(14, 8)">
    <path d="M21 25.2C21 25.2 20.8 25.8 20.3 26.7C19.8 27.6 19.6 28 19.6 28C19.1 28.7 18.4 29.4 17.7 29.9C17 30.4 16.3 30.7 15.6 30.7C14.9 30.7 14.3 30.4 13.8 29.9C13.3 29.4 13 28.7 13 28C13 27.3 13.3 26.6 13.8 26.1C14.3 25.6 15 25.2 15.7 25.2C16.4 25.2 17 25.5 17.5 26C18 26.5 18.3 27.2 18.3 27.9C18.3 28.6 18 29.3 17.5 29.8C17 30.3 16.3 30.6 15.6 30.6" fill="#EA4335"/>
    <path d="M37.3 16.2C37.3 16.2 36.8 16.8 36.3 17.7C35.8 18.6 35.6 19 35.6 19C35.1 19.7 34.4 20.4 33.7 20.9C33 21.4 32.3 21.7 31.6 21.7C30.9 21.7 30.3 21.4 29.8 20.9C29.3 20.4 29 19.7 29 19C29 18.3 29.3 17.6 29.8 17.1C30.3 16.6 31 16.2 31.7 16.2C32.4 16.2 33 16.5 33.5 17C34 17.5 34.3 18.2 34.3 18.9C34.3 19.6 34 20.3 33.5 20.8C33 21.3 32.3 21.6 31.6 21.6" fill="#FBBC04"/>
    <path d="M37.3 28C37.3 28 36.8 28.6 36.3 29.5C35.8 30.4 35.6 30.8 35.6 30.8C35.1 31.5 34.4 32.2 33.7 32.7C33 33.2 32.3 33.5 31.6 33.5C30.9 33.5 30.3 33.2 29.8 32.7C29.3 32.2 29 31.5 29 30.8C29 30.1 29.3 29.4 29.8 28.9C30.3 28.4 31 28 31.7 28C32.4 28 33 28.3 33.5 28.8C34 29.3 34.3 30 34.3 30.7C34.3 31.4 34 32.1 33.5 32.6C33 33.1 32.3 33.4 31.6 33.4" fill="#34A853"/>
    <path d="M29.3 22.1C29.3 22.1 28.8 22.7 28.3 23.6C27.8 24.5 27.6 24.9 27.6 24.9C27.1 25.6 26.4 26.3 25.7 26.8C25 27.3 24.3 27.6 23.6 27.6C22.9 27.6 22.3 27.3 21.8 26.8C21.3 26.3 21 25.6 21 24.9C21 24.2 21.3 23.5 21.8 23C22.3 22.5 23 22.1 23.7 22.1C24.4 22.1 25 22.4 25.5 22.9C26 23.4 26.3 24.1 26.3 24.8C26.3 25.5 26 26.2 25.5 26.7C25 27.2 24.3 27.5 23.6 27.5" fill="#4285F4"/>
    <text x="50" y="28" fill="#666666" font-family="Arial, sans-serif" font-size="14">Available in the</text>
    <text x="50" y="44" fill="#000000" font-family="Arial, sans-serif" font-weight="bold" font-size="16">Chrome Web Store</text>
  </g>
</svg>